<?xml version="1.0" encoding="UTF-8" standalone="no"?>
<!-- Created with Inkscape (http://www.inkscape.org/) -->
<svg
   xmlns:svg="http://www.w3.org/2000/svg"
   xmlns="http://www.w3.org/2000/svg"
   version="1.0"
   width="688"
   height="688"
   id="svg2652">
  <defs
     id="defs2654" />
  <g
     id="layer1">
    <rect
       width="688"
       height="688"
       x="0"
       y="0"
       id="rect5371"
       style="opacity:1;fill:#000000;fill-opacity:1;stroke:#60441c;stroke-width:0;stroke-linecap:round;stroke-linejoin:miter;stroke-miterlimit:4;stroke-dasharray:none;stroke-opacity:1" />
    <path
       d="M 338.17773,621.75859 C 321.30403,619.33969 306.31735,605.70569 302.63438,589.42359 C 300.15586,578.46629 299.93307,580.98649 306.52319,545.43319 C 309.85375,527.46498 318.56786,484.38019 325.88788,449.68917 C 333.20791,414.99815 339.10021,385.87762 338.98189,384.97687 C 338.76689,383.3402 338.77009,383.33917 344.0075,383.35958 L 349.24826,383.37999 L 362.65064,449.04225 C 378.9259,528.77958 387.8879,576.36399 387.74972,582.30749 C 387.36832,598.71229 374.13596,615.22339 357.26184,620.34959 C 352.21818,621.88179 343.51786,622.52409 338.17773,621.75859 z M 247.6091,603.65519 C 231.31247,601.27579 217.44462,589.19599 212.33272,572.92719 C 211.19235,569.29789 210.91257,566.85739 210.92371,560.63579 C 210.94666,547.80679 210.67228,548.37099 235.21837,510.68365 C 250.52328,487.18496 321.94115,380.4206 323.98386,377.98588 C 324.08481,377.86556 325.42749,378.4816 326.96759,379.35486 C 328.5077,380.22812 331.15058,381.31051 332.84065,381.76018 C 334.53073,382.20985 335.91351,382.6466 335.91351,382.73074 C 335.91351,383.38627 310.75577,502.22428 303.59507,535.39386 C 293.67546,581.34319 293.82209,580.86699 287.17902,588.70049 C 281.41291,595.49989 272.74026,600.95409 264.52812,602.94569 C 260.18455,603.99899 252.24459,604.33189 247.6091,603.65519 z M 428.74636,603.93669 C 428.03475,603.77519 425.8514,603.32349 423.89447,602.93269 C 415.8409,601.32469 406.79496,595.74499 400.82098,588.70049 C 394.3368,581.05439 394.13332,580.43109 386.6515,545.29859 C 379.51701,511.79698 353.38032,384.53444 353.38032,383.29737 C 353.38032,382.90159 354.76311,382.20305 356.45319,381.74508 C 358.14326,381.2871 360.65236,380.35234 362.02897,379.66784 C 363.40557,378.98333 364.75275,378.6652 365.02271,378.96088 C 366.73141,380.83243 431.64163,478.19582 450.7761,507.5884 C 477.61164,548.81069 477.14363,547.86789 477.10932,560.63579 C 477.0928,566.78509 476.79287,569.34009 475.66642,572.92719 C 471.24236,587.01549 460.22824,598.07489 446.45128,602.26249 C 442.32796,603.51579 431.4324,604.54609 428.74636,603.93669 z M 171.9196,552.53829 C 158.68273,550.64069 146.95821,542.31739 140.04053,529.9071 C 133.33087,517.87003 133.34351,501.12065 140.07127,489.15122 C 144.99246,480.39588 144.96148,480.42104 184.20998,453.30342 C 215.96116,431.36585 305.98784,371.41199 307.1781,371.41199 C 307.40264,371.41199 308.72709,370.50851 310.12133,369.40426 L 312.65631,367.39652 L 314.00629,369.11273 C 314.74878,370.05665 316.63506,372.02754 318.19804,373.49248 C 320.68027,375.81901 320.92694,376.2856 320.14767,377.18032 C 319.65699,377.7437 302.95577,402.36706 283.03385,431.8989 C 224.8204,518.19332 209.59244,540.16999 206.05357,542.99519 C 201.6667,546.49729 195.88217,549.61859 191.0037,551.11599 C 185.97695,552.65889 177.28159,553.30699 171.9196,552.53829 z M 503.71597,552.58529 C 496.52223,551.45429 489.15196,548.16839 483.45402,543.55189 C 481.87655,542.27389 480.20541,541.07979 479.74037,540.89839 C 478.58842,540.44909 457.13901,509.1005 409.80822,438.69155 C 387.92307,406.13536 369.48901,378.74399 368.84364,377.82184 L 367.67025,376.14521 L 370.20889,374.26379 C 371.60514,373.22901 373.68234,371.14743 374.82489,369.63806 C 376.63513,367.2466 377.03283,367.00745 377.91793,367.77812 C 378.47655,368.26453 401.78602,384.0759 429.71674,402.91451 C 457.64746,421.75313 493.86732,446.41657 510.20531,457.72217 C 526.54331,469.02776 540.22564,478.41277 540.6105,478.57775 C 541.7313,479.0582 546.42533,485.27973 548.58799,489.15122 C 555.30394,501.1738 555.31148,517.87822 548.60639,529.9071 C 542.79712,540.32889 533.66975,547.84859 522.83064,551.14269 C 517.93233,552.63129 508.52442,553.34139 503.71597,552.58529 z M 120.81301,476.20832 C 104.38808,473.82645 90.41431,461.55263 85.50477,445.19545 C 83.77441,439.43036 83.44839,428.73608 84.8332,423.1655 C 86.99385,414.47396 92.305592,405.95349 99.21744,400.09201 C 106.1731,394.19336 108.90282,393.12916 127.05586,389.23888 C 146.05708,385.16683 304.06875,353.29827 305.25766,353.29827 C 305.69614,353.29827 306.38554,354.38994 306.78964,355.72421 C 307.19374,357.05848 308.14212,359.53871 308.89714,361.23583 C 309.73234,363.11313 310.03427,364.54177 309.66815,364.88399 C 308.52731,365.9504 220.99723,423.41611 182.59376,448.31155 C 152.96935,467.51588 143.10191,473.59557 139.76047,474.70273 C 134.75041,476.36276 126.43463,477.02354 120.81301,476.20832 z M 554.17564,476.24891 C 549.01588,475.43765 544.53423,473.73455 540.49335,471.04942 C 538.452,469.69296 522.08058,459.09032 504.11241,447.488 C 486.14424,435.88568 450.60343,412.35665 425.13284,395.20126 L 378.82268,364.00965 L 380.0157,361.98762 C 380.67187,360.8755 381.65423,358.46544 382.19872,356.63193 C 382.74322,354.79841 383.36042,353.29827 383.57028,353.29827 C 385.05488,353.29827 519.81594,380.46073 545.38061,385.91279 C 580.50945,393.40455 581.13941,393.61035 588.78256,400.09201 C 595.69441,405.95349 601.00615,414.47396 603.1668,423.1655 C 604.55161,428.73608 604.2256,439.43036 602.49523,445.19545 C 598.24392,459.35962 587.1691,470.58834 573.29031,474.80623 C 568.39199,476.29486 558.98409,477.00492 554.17564,476.24891 z M 102.37583,386.94071 C 86.52429,384.61414 72.46365,372.25175 67.422899,356.2094 C 66.28761,352.5963 66,350.11185 66,343.91794 C 66,337.72404 66.28761,335.23959 67.422899,331.62649 C 72.73125,314.73248 87.67237,302.33061 104.8075,300.5954 C 109.82665,300.08714 116.18186,301.24457 223.97324,322.29824 C 267.54657,330.80892 303.64566,337.77222 304.19346,337.77222 C 305.01482,337.77222 305.18903,338.76971 305.18715,343.46201 L 305.18487,349.1518 L 254.40174,359.32707 C 212.34076,367.7547 113.40643,386.58153 107.55118,387.27217 C 106.66166,387.37709 104.33276,387.22793 102.37583,386.94071 z M 577.21423,386.94902 C 576.68052,386.61956 559.50483,383.27907 539.04602,379.52571 C 518.58721,375.77234 475.35686,367.44066 442.97858,361.01085 L 384.10897,349.3203 L 384.10709,343.59287 L 384.10521,337.86545 L 442.9767,326.17865 C 475.35602,319.75091 519.16944,311.2791 540.33986,307.35241 C 578.08071,300.35223 578.93248,300.22533 584.00688,300.8463 C 601.2708,302.95897 615.27224,314.74362 620.5771,331.62649 C 621.71239,335.23959 622,337.72404 622,343.91794 C 622,350.11185 621.71239,352.5963 620.5771,356.2094 C 616.10733,370.43458 604.91537,381.5843 591.12299,385.55234 C 585.81657,387.07898 578.5989,387.80376 577.21423,386.94902 z M 338.17773,381.13383 C 330.61057,379.86335 323.14201,375.93958 317.44264,370.24021 C 305.59652,358.39409 302.91038,338.5388 311.35289,325.22633 C 312.40805,323.56253 313.27136,321.97166 313.27136,321.69107 C 313.27136,320.86792 320.39494,313.81012 321.91145,313.13076 C 322.67438,312.78899 324.27173,311.79981 325.46111,310.9326 C 332.42461,305.85526 345.50041,304.18516 354.99762,307.16006 C 362.94378,309.64911 372.62886,316.66469 375.66483,322.13075 C 379.20581,328.50607 380.68706,332.35714 381.64167,337.66992 C 382.6298,343.16927 382.62979,344.02397 381.6415,349.57848 C 379.0373,364.21489 369.8157,374.94634 355.65673,379.81774 C 351.47499,381.25647 342.79909,381.90973 338.17773,381.13383 z M 254.07828,324.16044 C 225.61386,318.56931 181.71803,309.60386 156.532,304.23723 C 105.73533,293.41348 106.7728,293.72808 98.931334,286.77107 C 91.843381,280.48259 86.9701,272.61946 84.8332,264.02347 C 83.44839,258.45289 83.77441,247.75861 85.50477,241.99353 C 89.78556,227.73114 100.67518,216.74697 114.99074,212.25152 C 118.56268,211.12984 121.15888,210.8224 127.2822,210.79594 C 139.17832,210.74455 139.25429,210.78082 172.88998,232.57137 C 195.99915,247.54241 307.5299,322.27794 309.59459,324.17563 C 309.8851,324.44264 309.5223,325.64609 308.78836,326.84996 C 308.05442,328.05383 307.43971,329.47548 307.42232,330.00919 C 307.40495,330.5429 307.03997,331.73255 306.61126,332.65286 L 305.83179,334.32614 L 254.07828,324.16044 z M 382.47566,332.23129 C 382.12866,331.31862 381.84475,330.25252 381.84475,329.86218 C 381.84475,329.47185 381.08772,327.8607 380.16245,326.28186 C 379.23719,324.70302 378.72774,323.18658 379.03034,322.912 C 380.917,321.20007 484.83129,252.15708 511.55197,234.86165 C 549.01464,210.61329 548.56757,210.83182 560.7178,210.82934 C 566.91488,210.82808 569.3943,211.11478 573.00926,212.25066 C 587.32754,216.74968 598.21457,227.73156 602.49523,241.99353 C 604.2256,247.75861 604.55161,258.45289 603.1668,264.02347 C 601.00615,272.71501 595.69441,281.23548 588.78256,287.09696 C 581.14001,293.57811 580.50872,293.78438 545.38061,301.27812 C 519.47108,306.8053 385.04744,333.8907 383.52585,333.8907 C 383.29524,333.8907 382.82266,333.14397 382.47566,332.23129 z M 266.03608,290.13365 C 205.42771,249.16941 148.13813,209.81192 147.33668,208.5881 C 146.98088,208.04478 145.64773,206.24925 144.37413,204.59803 C 140.84726,200.02545 138.22674,194.9876 136.58712,189.62781 C 134.51649,182.85906 134.52023,172.58301 136.59584,165.69181 C 140.95489,151.21939 151.94837,140.22591 166.42079,135.86686 C 173.31198,133.79126 183.58804,133.78751 190.35679,135.85814 C 200.00987,138.81113 206.71826,143.64313 212.09972,151.51942 C 214.14361,154.51086 230.12554,177.77302 247.61511,203.2131 C 284.57734,256.97784 319.96466,309.8173 320.02325,311.33111 C 320.05358,312.11472 312.45581,320.95233 311.75182,320.95233 C 311.68683,320.95233 291.11474,307.08392 266.03608,290.13365 z M 373.94495,317.18844 C 372.66596,315.80611 370.68563,313.94423 369.54422,313.05094 L 367.46893,311.42678 L 400.29674,262.65702 C 418.35203,235.83365 443.45195,198.84006 456.07435,180.44903 C 480.63445,144.66456 480.83617,144.41928 489.88019,139.34047 C 501.85745,132.61445 518.60022,132.60258 530.63608,139.31155 C 541.13053,145.16133 548.46452,154.10477 552.0037,165.36835 C 553.139,168.98146 553.42661,171.46591 553.42661,177.65981 C 553.42661,186.36622 552.17996,191.60028 548.573,198.03775 C 543.50928,207.07516 543.26099,207.27928 507.46892,231.82921 C 474.70009,254.3055 378.72773,318.75881 377.09726,319.38448 C 376.64248,319.559 375.22393,318.57079 373.94495,317.18844 z M 277.59516,239.94472 C 216.15052,147.78471 214.4382,145.13501 212.47013,139.16814 C 210.26844,132.49297 210.20564,121.03811 212.33358,114.26177 C 216.82902,99.946202 227.81319,89.056597 242.07558,84.775807 C 247.84067,83.045437 258.53495,82.719427 264.10553,84.104227 C 272.70151,86.241127 280.56464,91.114407 286.85313,98.202362 C 293.47356,105.66446 293.59412,106.03509 301.8631,144.34349 C 305.972,163.37908 315.02935,206.90054 321.99057,241.05785 C 328.95178,275.21517 334.9142,303.63872 335.2404,304.2213 C 335.73278,305.10071 335.31858,305.41744 332.80063,306.08692 C 331.13256,306.53042 328.53693,307.59065 327.03254,308.44297 L 324.29729,309.99266 L 277.59516,239.94472 z M 362.43719,308.31984 C 361.54767,307.82151 359.30257,306.96166 357.44807,306.40907 C 355.36069,305.7871 354.17916,305.10051 354.34639,304.60668 C 354.49497,304.16794 360.76357,272.51428 368.27662,234.26521 C 386.48526,141.56468 393.01435,110.8766 395.54855,106.08161 C 399.76203,98.109212 407.39201,90.950887 415.80799,87.074517 C 422.31751,84.076247 426.51812,83.212177 434.27988,83.274837 C 453.58307,83.430657 469.7968,95.570202 475.66642,114.26177 C 476.80066,117.87372 477.08844,120.36132 477.08834,126.55322 C 477.08812,139.53214 477.88898,137.95463 448.02283,183.80554 C 424.97553,219.18806 366.70166,306.46059 364.7894,308.4582 C 364.22335,309.04951 363.68286,309.01771 362.43719,308.31984 z M 338.50092,303.16206 C 338.50078,302.45045 332.80581,274.06689 325.84545,240.08748 C 318.88508,206.10807 310.33229,162.87772 306.83924,144.02003 C 300.91423,112.03299 300.52922,109.4513 301.09891,105.52836 C 303.39587,89.711197 311.2123,77.974017 324.26898,70.736137 C 330.73058,67.154197 335.95912,65.917947 344.64692,65.917947 C 353.33472,65.917947 358.56326,67.154197 365.02486,70.736137 C 378.04582,77.954217 387.35808,91.932857 387.77173,104.88144 C 387.93771,110.07713 377.09969,169.23684 361.51906,248.1826 C 355.61954,278.075 350.79265,302.9652 350.79265,303.49416 C 350.79265,304.2777 349.65397,304.4559 344.64692,304.4559 C 338.93256,304.4559 338.50117,304.36508 338.50092,303.16206 z"
       id="path10235"
       style="fill:#ffffff" />
  </g>
</svg>
